<svg xmlns="http://www.w3.org/2000/svg" width="80.49" height="54.969" viewBox="0 0 80.49 54.969">
  <g id="logo" transform="translate(0 -0.171)">
    <path id="패스_1" data-name="패스 1" d="M29.73.171H44.6L15.357,29.065H0Z" fill="#fff"/>
    <path id="패스_2" data-name="패스 2" d="M88.554,21.867H103.42L89.279,35.609H74.414Z" transform="translate(-23.655 -6.897)" fill="#fff"/>
    <rect id="사각형_2" data-name="사각형 2" width="44.233" height="12.685" transform="translate(0.362 28.36)" fill="#fff"/>
    <path id="패스_3" data-name="패스 3" d="M58.281,42.53V68.605H43.054V42.53Z" transform="translate(-13.686 -13.465)" fill="#fff"/>
    <path id="패스_4" data-name="패스 4" d="M89.28,41.5V56.3H74.415V41.849Z" transform="translate(-23.656 -13.137)" fill="#fff"/>
    <path id="패스_5" data-name="패스 5" d="M74.414.171H89.279L81.665,7.923,74.414,14.97Z" transform="translate(-23.655)" fill="#fff"/>
    <path id="패스_6" data-name="패스 6" d="M111.072,56.3H96.207l7.614-7.752,7.252-7.047Z" transform="translate(-30.583 -13.137)" fill="#fff"/>
    <path id="패스_7" data-name="패스 7" d="M95.144.171h15.228v14.8H95.144V.171Z" transform="translate(-30.245)" fill="#fff"/>
  </g>
</svg>
