<svg xmlns="http://www.w3.org/2000/svg" width="20.237" height="20.236" viewBox="0 0 20.237 20.236">
  <g id="edit" transform="translate(0 -0.501)">
    <path id="패스_20" data-name="패스 20" d="M16.021,92.562a.843.843,0,0,0-.843.843v6.746a.844.844,0,0,1-.843.843H2.53a.844.844,0,0,1-.843-.843v-11.8A.844.844,0,0,1,2.53,87.5H9.275a.843.843,0,0,0,0-1.686H2.53A2.533,2.533,0,0,0,0,88.346v11.8a2.533,2.533,0,0,0,2.53,2.53h11.8a2.533,2.533,0,0,0,2.53-2.53V93.405A.842.842,0,0,0,16.021,92.562Zm0,0" transform="translate(0 -81.943)" fill="#fff"/>
    <path id="패스_21" data-name="패스 21" d="M182.528,74.933a.427.427,0,0,0-.115.215l-.6,2.982a.421.421,0,0,0,.414.5.4.4,0,0,0,.083-.008l2.981-.6a.42.42,0,0,0,.216-.116l6.671-6.671L189.2,68.262Zm0,0" transform="translate(-174.622 -65.083)" fill="#fff"/>
    <path id="패스_22" data-name="패스 22" d="M395.593,1.118a2.109,2.109,0,0,0-2.981,0l-1.167,1.167,2.981,2.981L395.593,4.1a2.108,2.108,0,0,0,0-2.981Zm0,0" transform="translate(-375.974 0)" fill="#fff"/>
  </g>
</svg>
