<svg xmlns="http://www.w3.org/2000/svg" width="28.417" height="35.5" viewBox="0 0 28.417 35.5">
  <path id="padlock" d="M55.477,15.693H53.735V10.627a10.627,10.627,0,0,0-21.255,0v5.065H30.738A1.838,1.838,0,0,0,28.9,17.531v16.13A1.839,1.839,0,0,0,30.738,35.5H55.477a1.839,1.839,0,0,0,1.839-1.839V17.531a1.839,1.839,0,0,0-1.839-1.839ZM36.944,10.627a6.164,6.164,0,0,1,12.327,0v5.065H36.944Zm8.167,15.581v3.3a2,2,0,1,1-4.007,0v-3.3a3.227,3.227,0,1,1,4.007,0Z" transform="translate(-28.899)" fill="#27babb"/>
</svg>
