<svg xmlns="http://www.w3.org/2000/svg" width="28.416" height="35.501" viewBox="0 0 28.416 35.501">
  <path id="padlock" d="M308.551,414.08a10.635,10.635,0,0,0-12.371-10.489,10.816,10.816,0,0,0-8.884,10.788v4.766h-1.742a1.838,1.838,0,0,0-1.838,1.838h0v16.13a1.84,1.84,0,0,0,1.838,1.839h24.739a1.839,1.839,0,0,0,1.839-1.839h0v-16.13a1.839,1.839,0,0,0-1.839-1.839H291.76V414.08a6.164,6.164,0,0,1,12.327,0h4.464Zm-8.624,15.581v3.215a2.053,2.053,0,0,1-1.35,1.985,2.01,2.01,0,0,1-2.657-1.9v-3.3a3.227,3.227,0,1,1,4.007,0Z" transform="translate(-283.716 -403.452)" fill="#27babb"/>
</svg>

