<svg xmlns="http://www.w3.org/2000/svg" width="15.92" height="10.855" viewBox="0 0 15.92 10.855">
  <g id="royal-crown" transform="translate(-0.002 -63.85)">
    <path id="패스_18" data-name="패스 18" d="M1.062,69.59a.366.366,0,0,0,.042,0L2.518,74.7s1.552-.754,5.445-.754,5.443.754,5.443.754l1.414-5.117.042,0a1.06,1.06,0,1,0-1.06-1.06,1.032,1.032,0,0,0,.052.326L11.3,70.35,8.548,65.794a1.06,1.06,0,1,0-1.171,0L4.629,70.35,2.072,68.855a1.08,1.08,0,0,0,.052-.326,1.061,1.061,0,1,0-1.062,1.06Z" fill="#ffdc4b"/>
  </g>
</svg>
